<svg xmlns="http://www.w3.org/2000/svg" viewBox="0 0 1152.00 614.40" role="img" aria-label="téra"><title>téra · Pilar</title><rect x="0" y="0" width="1152.00" height="614.40" fill="#0A0A0A"/><g transform="translate(96.000,158.400)"><rect x="48.000" y="0.000" width="48.000" height="360.000" fill="#FFFFFF"/><rect x="0.000" y="85.200" width="144.000" height="21.600" fill="#FFFFFF"/><rect x="96.000" y="325.200" width="72.000" height="21.600" fill="#FFFFFF"/><rect x="240.000" y="85.200" width="192.000" height="21.600" fill="#FFFFFF"/><rect x="240.000" y="72.000" width="48.000" height="288.000" fill="#FFFFFF"/><rect x="240.000" y="205.200" width="192.000" height="21.600" fill="#FFFFFF"/><rect x="240.000" y="325.200" width="192.000" height="21.600" fill="#FFFFFF"/><rect x="384.000" y="72.000" width="48.000" height="120.000" fill="#FFFFFF"/><rect x="504.000" y="72.000" width="48.000" height="288.000" fill="#FFFFFF"/><rect x="504.000" y="85.200" width="168.000" height="21.600" fill="#FFFFFF"/><rect x="624.000" y="72.000" width="48.000" height="72.000" fill="#FFFFFF"/><rect x="768.000" y="85.200" width="192.000" height="21.600" fill="#FFFFFF"/><rect x="912.000" y="72.000" width="48.000" height="288.000" fill="#FFFFFF"/><rect x="744.000" y="205.200" width="192.000" height="21.600" fill="#FFFFFF"/><rect x="744.000" y="192.000" width="48.000" height="168.000" fill="#FFFFFF"/><rect x="744.000" y="325.200" width="192.000" height="21.600" fill="#FFFFFF"/><polygon points="316.800,-62.400 369.600,-62.400 340.800,9.600 288.000,9.600" fill="#FFFFFF"/></g></svg>