<svg version="1.1" xmlns="http://www.w3.org/2000/svg" style="display: block;" viewBox="0 0 2048 2048" width="1024" height="1024" preserveAspectRatio="none" xmlns:c2pa="http://c2pa.org/manifest"><metadata><c2pa:manifest>AAAMZ2p1bWIAAAAeanVtZGMycGEAEQAQgAAAqgA4m3EDYzJwYQAAAAxBanVtYgAAAEdqdW1kYzJtYQARABCAAACqADibcQN1cm46YzJwYTo1ZDcyNmJlMC0zMjllLTQxMGYtYWNlMy0zYzM2NzNlNzVmNDcAAAAB4mp1bWIAAAApanVtZGMyYXMAEQAQgAAAqgA4m3EDYzJwYS5hc3NlcnRpb25zAAAAAO1qdW1iAAAAQWp1bWRjYm9yABEAEIAAAKoAOJtxE2MycGEuYWN0aW9ucy52MgAAAAAYYzJzaM7zJ7T38ZCsPsP5SBUpGKMAAACkY2JvcqFnYWN0aW9uc4GjZmFjdGlvbmxjMnBhLmNyZWF0ZWRxZGlnaXRhbFNvdXJjZVR5cGV4Rmh0dHA6Ly9jdi5pcHRjLm9yZy9uZXdzY29kZXMvZGlnaXRhbHNvdXJjZXR5cGUvdHJhaW5lZEFsZ29yaXRobWljTWVkaWFrZGVzY3JpcHRpb252Q3JlYXRlZCBieSBSZWNyYWZ0IEFJLgAAAMRqdW1iAAAAQGp1bWRjYm9yABEAEIAAAKoAOJtxE2MycGEuaGFzaC5kYXRhAAAAABhjMnNoiYqQ0B/oLmMb5BqrUDxzOAAAAHxjYm9ypWpleGNsdXNpb25zgaJlc3RhcnQY22ZsZW5ndGgZEIxkbmFtZW5qdW1iZiBtYW5pZmVzdGNhbGdmc2hhMjU2ZGhhc2hYIHzZtYwMqWmxsFz1ZURD++uWkQNBgBL5qcDW3PBp5q78Y3BhZEkAAAAAAAAAAAAAAAI0anVtYgAAACdqdW1kYzJjbAARABCAAACqADibcQNjMnBhLmNsYWltLnYyAAAAAgVjYm9ypmppbnN0YW5jZUlEeCx4bXA6aWlkOjhkNWY1N2FhLTNhZGYtNGEwMS04YjdiLWMyYWFlYjRmZTZmOXRjbGFpbV9nZW5lcmF0b3JfaW5mb6NkbmFtZWpyZWNyYWZ0LmFpZ3ZlcnNpb254KDgxY2U4MmUyYzVjM2NiZmJlOGM2ZmJlMTc5ZDVmOGQ5MWM0MDljZTF3b3JnLmNvbnRlbnRhdXRoLmMycGFfcnNmMC45MC43aXNpZ25hdHVyZXhNc2VsZiNqdW1iZj0vYzJwYS91cm46YzJwYTo1ZDcyNmJlMC0zMjllLTQxMGYtYWNlMy0zYzM2NzNlNzVmNDcvYzJwYS5zaWduYXR1cmVyY3JlYXRlZF9hc3NlcnRpb25zgqJjdXJseCpzZWxmI2p1bWJmPWMycGEuYXNzZXJ0aW9ucy9jMnBhLmFjdGlvbnMudjJkaGFzaFgg0vzu5r6Fc9+ayDLSD3Zo20bGWwP7/HqCmSLw0L+FpvOiY3VybHgpc2VsZiNqdW1iZj1jMnBhLmFzc2VydGlvbnMvYzJwYS5oYXNoLmRhdGFkaGFzaFgg6kBQPZv3Svvy+qGPymbd0ZKa3UYnPjjuVMl6KJeB/uNoZGM6dGl0bGV4GlJlY3JhZnQgQUkgR2VuZXJhdGVkIEltYWdlY2FsZ2ZzaGEyNTYAAAfcanVtYgAAAChqdW1kYzJjcwARABCAAACqADibcQNjMnBhLnNpZ25hdHVyZQAAAAesY2JvctKEWQOwogEmGCGCWQHnMIIB4zCCAYmgAwIBAgIJALfeWmNDUW56MAoGCCqGSM49BAMCMEAxHzAdBgNVBAMMFlJlY3JhZnQgU3RhZ2luZyBEZXYgQ0ExEDAOBgNVBAoMB1JlY3JhZnQxCzAJBgNVBAYTAlVTMB4XDTI2MDYxMjE5NDM1MFoXDTI3MDYxMjE5NDM1MFowNzELMAkGA1UEBhMCVVMxEzARBgNVBAoTClJlY3JhZnQgQUkxEzARBgNVBAMTCnJlY3JhZnQuYWkwWTATBgcqhkjOPQIBBggqhkjOPQMBBwNCAARKaTVbACsg/DeG3LeOxYdID/VA6EFG73E6Oknb+KIiCFJygRUz4ueN2z/t2qYb6CIUvS8RvgOiiClfoqsYtw81o3UwczAMBgNVHRMBAf8EAjAAMA4GA1UdDwEB/wQEAwIGwDATBgNVHSUEDDAKBggrBgEFBQcDBDAdBgNVHQ4EFgQULzHpBen96SL1y4IPHa8MkMshXf0wHwYDVR0jBBgwFoAUAgsqOBrKqpdK//m/kxZo7ZR4ebcwCgYIKoZIzj0EAwIDSAAwRQIgU8hKW0aXvvk8SQgVFNkax69Ym9ae8GsT2RZTQw+B51ACIQC0D4BkEoRD4N0r2ZRkNy0HZaW3WICy/QZGN95ilF4yzFkBvTCCAbkwggFfoAMCAQICCQCc+Wg7T6ATbzAKBggqhkjOPQQDAjBAMR8wHQYDVQQDDBZSZWNyYWZ0IFN0YWdpbmcgRGV2IENBMRAwDgYDVQQKDAdSZWNyYWZ0MQswCQYDVQQGEwJVUzAeFw0yNjA2MTIxOTQwMTZaFw0yODA2MTExOTQwMTZaMEAxHzAdBgNVBAMMFlJlY3JhZnQgU3RhZ2luZyBEZXYgQ0ExEDAOBgNVBAoMB1JlY3JhZnQxCzAJBgNVBAYTAlVTMFkwEwYHKoZIzj0CAQYIKoZIzj0DAQcDQgAEQ9IQBlcVbKaKPYrQSfOhL/00s7xUDC7RinIuLO/I1k99y9yh6oWF9kPxaP+tx1v1PeOL3yrVquJ730H0ZGiDyqNCMEAwDwYDVR0TAQH/BAUwAwEB/zAOBgNVHQ8BAf8EBAMCAYYwHQYDVR0OBBYEFAILKjgayqqXSv/5v5MWaO2UeHm3MAoGCCqGSM49BAMCA0gAMEUCIFQwNImLlYDeQhjgF+ZiqTbgcuzSqmOJw3Q2lQ/hu83FAiEA9O8cLm/xfoVLqB4jtdbuHzi3WL+p2RN+DRGkwpYswVuhY3BhZFkDpAAAAAAAAAAAAAAAAAAAAAAAAAAAAAAAAAAAAAAAAAAAAAAAAAAAAAAAAAAAAAAAAAAAAAAAAAAAAAAAAAAAAAAAAAAAAAAAAAAAAAAAAAAAAAAAAAAAAAAAAAAAAAAAAAAAAAAAAAAAAAAAAAAAAAAAAAAAAAAAAAAAAAAAAAAAAAAAAAAAAAAAAAAAAAAAAAAAAAAAAAAAAAAAAAAAAAAAAAAAAAAAAAAAAAAAAAAAAAAAAAAAAAAAAAAAAAAAAAAAAAAAAAAAAAAAAAAAAAAAAAAAAAAAAAAAAAAAAAAAAAAAAAAAAAAAAAAAAAAAAAAAAAAAAAAAAAAAAAAAAAAAAAAAAAAAAAAAAAAAAAAAAAAAAAAAAAAAAAAAAAAAAAAAAAAAAAAAAAAAAAAAAAAAAAAAAAAAAAAAAAAAAAAAAAAAAAAAAAAAAAAAAAAAAAAAAAAAAAAAAAAAAAAAAAAAAAAAAAAAAAAAAAAAAAAAAAAAAAAAAAAAAAAAAAAAAAAAAAAAAAAAAAAAAAAAAAAAAAAAAAAAAAAAAAAAAAAAAAAAAAAAAAAAAAAAAAAAAAAAAAAAAAAAAAAAAAAAAAAAAAAAAAAAAAAAAAAAAAAAAAAAAAAAAAAAAAAAAAAAAAAAAAAAAAAAAAAAAAAAAAAAAAAAAAAAAAAAAAAAAAAAAAAAAAAAAAAAAAAAAAAAAAAAAAAAAAAAAAAAAAAAAAAAAAAAAAAAAAAAAAAAAAAAAAAAAAAAAAAAAAAAAAAAAAAAAAAAAAAAAAAAAAAAAAAAAAAAAAAAAAAAAAAAAAAAAAAAAAAAAAAAAAAAAAAAAAAAAAAAAAAAAAAAAAAAAAAAAAAAAAAAAAAAAAAAAAAAAAAAAAAAAAAAAAAAAAAAAAAAAAAAAAAAAAAAAAAAAAAAAAAAAAAAAAAAAAAAAAAAAAAAAAAAAAAAAAAAAAAAAAAAAAAAAAAAAAAAAAAAAAAAAAAAAAAAAAAAAAAAAAAAAAAAAAAAAAAAAAAAAAAAAAAAAAAAAAAAAAAAAAAAAAAAAAAAAAAAAAAAAAAAAAAAAAAAAAAAAAAAAAAAAAAAAAAAAAAAAAAAAAAAAAAAAAAAAAAAAAAAAAAAAAAAAAAAAAAAAAAAAAAAAAAAAAAAAAAAAAAAAAAAAAAAAAAAAAAAAAAAAAAAAAAAAAAAAAAAAAAAAAAAAAAAAAAAAAAAAAAAAAAAAAAAAAAAAAAAAAAAAAAA9lhAajTjOo3+KUvrHiYdfBv9ZjQmOglHR8AxwVnUJxsSD4L3TyPV+abK84xApfSMq8s3ADgwYTOEw5YCicSscQ1PAQ==</c2pa:manifest></metadata>
<path transform="translate(0,0)" fill="rgb(0,0,0)" d="M 0 0 L 2048 0 L 2048 2048 L 0 2048 L 0 0 z"/>
<path transform="translate(0,0)" fill="rgb(255,255,255)" d="M 983.575 282.814 C 1392.83 260.438 1742.66 574.223 1764.74 983.491 C 1786.82 1392.76 1472.79 1742.36 1063.51 1764.16 C 654.636 1785.92 305.461 1472.28 283.399 1063.42 C 261.338 654.568 574.736 305.168 983.575 282.814 z"/>
<path transform="translate(0,0)" fill="rgb(0,0,0)" d="M 1007.66 426.63 C 1336.95 417.438 1611.46 676.715 1621.06 1006 C 1630.66 1335.29 1371.72 1610.11 1042.45 1620.12 C 712.598 1630.14 437.185 1370.65 427.569 1040.79 C 417.953 710.931 677.783 435.838 1007.66 426.63 z"/>
<path transform="translate(0,0)" fill="rgb(255,255,255)" d="M 605.909 608.164 C 684.795 606.391 768.661 608.934 847.99 608.777 L 1442.8 608.081 C 1443.43 642.021 1442.94 677.734 1442.93 711.773 L 1442.9 906.305 C 1393.63 906.169 1344.35 906.297 1295.08 906.689 L 1294.98 744.914 L 1110.16 744.782 C 1111.23 775.271 1110.8 808.57 1110.81 839.299 L 1110.84 993.185 L 1110.96 1425.6 C 1122.63 1425.1 1135.7 1425.27 1147.5 1425.21 C 1173.07 1425.04 1198.64 1425.12 1224.2 1425.46 C 1224.51 1470.47 1223.6 1516.1 1224.63 1561.02 C 1091.92 1559.12 956.651 1561.17 823.622 1560.8 C 822.615 1517.19 823.625 1469.06 823.633 1425.06 C 861.544 1424.61 900.752 1425.35 938.69 1425.87 C 937.965 1299.52 937.999 1173.17 938.791 1046.82 C 938.955 946.422 937.081 845.141 938.882 744.877 C 878.242 744.27 813.206 746.421 753.133 744.214 L 753.235 906.609 L 604.958 906.365 L 605.737 699.432 C 605.848 669.72 604.468 637.473 605.909 608.164 z"/>
</svg>